<svg width="38" height="38" viewBox="0 0 38 38" fill="none" xmlns="http://www.w3.org/2000/svg">
<circle cx="18.8595" cy="18.8595" r="18.6095" stroke="black" stroke-width="0.5"/>
<path d="M21.9588 15.5185C21.604 15.4908 21.2238 15.5755 20.6403 15.7983C20.689 15.7795 20.0838 16.0158 19.9135 16.0758C19.537 16.207 19.2273 16.279 18.88 16.279C18.5365 16.279 18.22 16.2108 17.8563 16.0878C17.7288 16.0447 17.6025 15.9982 17.4775 15.9483L17.1408 15.8155C16.6548 15.625 16.3818 15.553 16.1545 15.559C15.2898 15.5703 14.4723 16.069 13.9968 16.8955C13.0278 18.5785 13.5648 21.6198 14.9815 23.6688C15.7353 24.7518 16.1485 25.1388 16.3143 25.1335C16.4808 25.126 16.6038 25.0908 16.9023 24.9648L17.0268 24.9115C17.7813 24.5898 18.3093 24.448 19.105 24.448C19.8708 24.448 20.3823 24.5875 21.1068 24.8995L21.2328 24.9535C21.5305 25.081 21.6378 25.1095 21.8268 25.105C22.0945 25.1013 22.4253 24.7923 23.1595 23.7145C23.3605 23.4213 23.5383 23.1123 23.692 22.7995C23.5912 22.7162 23.4934 22.6294 23.3988 22.5393C22.4313 21.6183 21.8335 20.3763 21.817 18.8418C21.8014 17.7068 22.1749 16.6007 22.8753 15.7075C22.5813 15.599 22.2725 15.5357 21.9595 15.52L21.9588 15.5185ZM22.075 14.023C22.606 14.059 24.127 14.221 25.117 15.67C25.036 15.715 23.299 16.723 23.317 18.829C23.344 21.349 25.522 22.186 25.549 22.195C25.531 22.258 25.198 23.392 24.397 24.562C23.704 25.579 22.984 26.587 21.85 26.605C20.734 26.632 20.374 25.948 19.105 25.948C17.827 25.948 17.431 26.587 16.378 26.632C15.28 26.668 14.452 25.534 13.75 24.526C12.319 22.456 11.23 18.694 12.697 16.147C13.426 14.878 14.722 14.077 16.135 14.059C17.206 14.032 18.223 14.779 18.88 14.779C19.528 14.779 20.689 13.915 22.075 14.023ZM21.22 12.655C20.635 13.357 19.681 13.906 18.754 13.834C18.628 12.88 19.096 11.881 19.636 11.26C20.239 10.558 21.247 10.036 22.084 10C22.192 10.972 21.805 11.953 21.22 12.655Z" fill="#3C63EE"/>
</svg>
