<svg width="38" height="38" viewBox="0 0 38 38" fill="none" xmlns="http://www.w3.org/2000/svg">
<path d="M25.1551 17.4442H24.6271V17.417H18.7279V20.0389H22.4323C21.8918 21.5652 20.4396 22.6608 18.7279 22.6608C16.5559 22.6608 14.795 20.8999 14.795 18.728C14.795 16.5561 16.5559 14.7951 18.7279 14.7951C19.7304 14.7951 20.6425 15.1733 21.337 15.7911L23.191 13.9371C22.0203 12.8461 20.4544 12.1732 18.7279 12.1732C15.108 12.1732 12.1731 15.1081 12.1731 18.728C12.1731 22.3478 15.108 25.2827 18.7279 25.2827C22.3477 25.2827 25.2826 22.3478 25.2826 18.728C25.2826 18.2885 25.2374 17.8595 25.1551 17.4442Z" fill="#3C63EE"/>
<path d="M12.9288 15.6771L15.0824 17.2564C15.6651 15.8137 17.0764 14.7951 18.7278 14.7951C19.7304 14.7951 20.6425 15.1733 21.337 15.7911L23.191 13.9371C22.0203 12.8461 20.4544 12.1732 18.7278 12.1732C16.2101 12.1732 14.0268 13.5946 12.9288 15.6771Z" fill="#3C63EE"/>
<path d="M18.7278 25.2828C20.4209 25.2828 21.9593 24.6348 23.1225 23.5811L21.0938 21.8644C20.4136 22.3817 19.5824 22.6615 18.7278 22.6608C17.0229 22.6608 15.5753 21.5737 15.03 20.0566L12.8925 21.7035C13.9773 23.8263 16.1803 25.2828 18.7278 25.2828Z" fill="#3C63EE"/>
<path d="M25.1552 17.4443H24.6272V17.4171H18.7279V20.039H22.4323C22.1738 20.7654 21.7081 21.4002 21.0929 21.8648L21.0938 21.8642L23.1225 23.5809C22.979 23.7113 25.2827 22.0054 25.2827 18.7281C25.2827 18.2886 25.2374 17.8596 25.1552 17.4443Z" fill="#3C63EE"/>
<circle cx="18.8595" cy="18.8595" r="18.6095" stroke="black" stroke-width="0.5"/>
</svg>
