<svg width="21" height="14" viewBox="0 0 21 14" fill="none" xmlns="http://www.w3.org/2000/svg">
<path d="M7.57889 0.266687C7.94948 0.629381 7.94948 1.23145 7.58616 1.6014L3.17543 6.01902H19.9827C20.4986 6.01902 20.9201 6.43974 20.9201 6.96202C20.9201 7.4843 20.4986 7.90503 19.9827 7.90503H3.17543L7.59343 12.3226C7.95675 12.6926 7.94948 13.2874 7.58616 13.6574C7.21557 14.0201 6.62699 14.0201 6.2564 13.6501L0.268858 7.62938C0.188927 7.54233 0.123529 7.44803 0.0726644 7.33197C0.0217993 7.21591 0 7.09259 0 6.96928C0 6.72265 0.0944637 6.49052 0.268858 6.30917L6.2564 0.288449C6.61246 -0.0887534 7.2083 -0.0960073 7.57889 0.266687Z" fill="#212224"/>
</svg>
