<svg width="17" height="14" viewBox="0 0 17 14" fill="none" xmlns="http://www.w3.org/2000/svg">
<path d="M0.571075 11.247V13.6112C0.571075 13.8289 0.763211 14 1.00775 14H3.66272C3.77625 14 3.88979 13.9611 3.96839 13.8833L11.6775 7.02503C12.6508 6.15922 12.6511 4.63833 11.6783 3.77208C10.8528 3.03708 9.6077 3.03708 8.78227 3.77208L0.702077 10.9671C0.614743 11.0449 0.571075 11.1382 0.571075 11.247ZM16.038 3.14373C16.3786 2.84044 16.3786 2.35051 16.038 2.04722L13.9944 0.227468C13.6538 -0.0758228 13.1036 -0.0758228 12.763 0.227468C11.9119 0.985345 11.9119 2.31586 12.763 3.07374L12.9914 3.27717C13.8171 4.01235 15.0625 4.01235 15.8882 3.27716L16.038 3.14373Z" fill="#AFAFAF"/>
</svg>
