<svg width="208" height="213" viewBox="0 0 208 213" fill="none" xmlns="http://www.w3.org/2000/svg">
<path d="M89.3682 69.0837L87.5151 69.0024C87.6255 66.4746 88.7354 44.1884 93.6135 40.123C93.9233 39.8461 94.2886 39.6387 94.6849 39.5146C95.0813 39.3904 95.4996 39.3524 95.9118 39.4031C98.816 39.8076 101.987 44.4157 105.607 53.4907C108.184 59.952 110.042 66.3946 110.06 66.459L108.278 66.9713C108.26 66.9078 106.424 60.5431 103.88 54.167C99.3876 42.9093 96.6324 41.3776 95.6564 41.2418C95.4997 41.2248 95.3413 41.2437 95.193 41.297C95.0447 41.3503 94.9105 41.4366 94.8004 41.5493C91.201 44.5488 89.6588 62.442 89.3682 69.0837Z" fill="black"/>
<path d="M72.9962 57.0586L71.1411 103.609L132.349 97.0113L124.783 52.0682L72.9962 57.0586Z" fill="#FF5C00"/>
<path d="M124.783 52.0682L120.28 52.502L126.272 91.9125L71.3555 98.2356L71.1411 103.609L132.349 97.0113L124.783 52.0682Z" fill="#D32626" fill-opacity="0.25"/>
<path d="M157.849 132.113L155.304 131.83C155.326 131.63 157.44 111.716 150.585 104.27C149.779 103.364 148.779 102.653 147.659 102.189C146.54 101.724 145.33 101.52 144.12 101.591C129.189 102.015 122.168 127.658 122.099 127.917L119.625 127.255C121.004 122.466 122.919 117.849 125.335 113.491C130.537 104.23 137.008 99.2288 144.047 99.0287C145.624 98.9478 147.198 99.2207 148.655 99.8274C150.113 100.434 151.416 101.359 152.47 102.535C160.113 110.841 157.945 131.248 157.849 132.113Z" fill="#212121"/>
<path d="M112.428 113.85L166.458 120.263L165.62 205.997L93.4966 197.401L112.428 113.85Z" fill="#212121"/>
<path d="M166.458 120.262L161.107 119.627L158.501 198.955L94.5124 192.918L93.4966 197.401L165.62 205.997L166.458 120.262Z" fill="#212121"/>
</svg>
