<svg width="26" height="26" viewBox="0 0 26 26" fill="none" xmlns="http://www.w3.org/2000/svg">
<rect width="26" height="26" fill="#FF0000" fill-opacity="0.01"/>
<path opacity="0.3" fill-rule="evenodd" clip-rule="evenodd" d="M8.2218 18.6333C8.2218 18.011 7.76364 17.5066 7.14674 17.5066C6.52984 17.5066 6.07026 18.011 6.07026 18.6333V19.7599C6.07026 22.2489 7.92529 24.2666 10.3929 24.2666H17.3359C19.8035 24.2666 21.6667 22.2489 21.6667 19.7599V6.23993C21.6667 3.75097 19.6663 1.73327 17.1987 1.73327H10.3929C7.92529 1.73327 6.07026 3.75097 6.07026 6.23993V7.36661C6.07026 7.98885 6.52209 8.49327 7.13898 8.49327C7.75588 8.49327 8.25597 7.98885 8.25597 7.36661V6.23993C8.25597 4.99545 9.15909 3.88504 10.3929 3.88504L17.3359 3.92824C18.5697 3.92824 19.536 4.99545 19.536 6.23993V19.7599C19.536 21.0044 18.5697 22.102 17.3359 22.102H10.3929C9.15909 22.102 8.2218 21.0044 8.2218 19.7599V18.6333ZM17.6072 12.2197C18.0508 12.6609 18.0452 13.3621 17.5903 13.7966L14.0522 17.1766C13.5916 17.6166 12.8448 17.6166 12.3843 17.1766C11.9237 16.7366 11.9237 16.0233 12.3843 15.5833L14.4303 13.6287L4.46667 13.6287C3.91438 13.6287 3.46667 13.1809 3.46667 12.6287V12.3753C3.46667 11.823 3.91438 11.3753 4.46666 11.3753L13.3878 11.3753L12.3843 10.4166C11.9237 9.97662 11.9237 9.26325 12.3843 8.82326C12.8448 8.38327 13.5916 8.38327 14.0522 8.82326L16.73 11.3814C17.1787 11.4308 17.5381 11.7772 17.6072 12.2197Z" fill="black"/>
<mask id="mask0_63_4778" style="mask-type:luminance" maskUnits="userSpaceOnUse" x="3" y="1" width="19" height="24">
<path fill-rule="evenodd" clip-rule="evenodd" d="M8.2218 18.6333C8.2218 18.011 7.76364 17.5066 7.14674 17.5066C6.52984 17.5066 6.07026 18.011 6.07026 18.6333V19.7599C6.07026 22.2489 7.92529 24.2666 10.3929 24.2666H17.3359C19.8035 24.2666 21.6667 22.2489 21.6667 19.7599V6.23993C21.6667 3.75097 19.6663 1.73327 17.1987 1.73327H10.3929C7.92529 1.73327 6.07026 3.75097 6.07026 6.23993V7.36661C6.07026 7.98885 6.52209 8.49327 7.13898 8.49327C7.75588 8.49327 8.25597 7.98885 8.25597 7.36661V6.23993C8.25597 4.99545 9.15909 3.88504 10.3929 3.88504L17.3359 3.92824C18.5697 3.92824 19.536 4.99545 19.536 6.23993V19.7599C19.536 21.0044 18.5697 22.102 17.3359 22.102H10.3929C9.15909 22.102 8.2218 21.0044 8.2218 19.7599V18.6333ZM17.6072 12.2197C18.0508 12.6609 18.0452 13.3621 17.5903 13.7966L14.0522 17.1766C13.5916 17.6166 12.8448 17.6166 12.3843 17.1766C11.9237 16.7366 11.9237 16.0233 12.3843 15.5833L14.4303 13.6287L4.46667 13.6287C3.91438 13.6287 3.46667 13.1809 3.46667 12.6287V12.3753C3.46667 11.823 3.91438 11.3753 4.46666 11.3753L13.3878 11.3753L12.3843 10.4166C11.9237 9.97662 11.9237 9.26325 12.3843 8.82326C12.8448 8.38327 13.5916 8.38327 14.0522 8.82326L16.73 11.3814C17.1787 11.4308 17.5381 11.7772 17.6072 12.2197Z" fill="white"/>
</mask>
<g mask="url(#mask0_63_4778)">
<rect width="26" height="26" fill="black"/>
</g>
</svg>

