<svg width="16" height="16" viewBox="0 0 16 16" fill="none" xmlns="http://www.w3.org/2000/svg">
<path d="M11.9999 8.66533H8.66658V11.9987C8.66658 12.1755 8.59635 12.345 8.47132 12.4701C8.3463 12.5951 8.17673 12.6653 7.99992 12.6653C7.82311 12.6653 7.65354 12.5951 7.52851 12.4701C7.40349 12.345 7.33325 12.1755 7.33325 11.9987V8.66533H3.99992C3.82311 8.66533 3.65354 8.5951 3.52851 8.47007C3.40349 8.34505 3.33325 8.17548 3.33325 7.99867C3.33325 7.82186 3.40349 7.65229 3.52851 7.52726C3.65354 7.40224 3.82311 7.332 3.99992 7.332H7.33325V3.99867C7.33325 3.82186 7.40349 3.65229 7.52851 3.52726C7.65354 3.40224 7.82311 3.332 7.99992 3.332C8.17673 3.332 8.3463 3.40224 8.47132 3.52726C8.59635 3.65229 8.66658 3.82186 8.66658 3.99867V7.332H11.9999C12.1767 7.332 12.3463 7.40224 12.4713 7.52726C12.5963 7.65229 12.6666 7.82186 12.6666 7.99867C12.6666 8.17548 12.5963 8.34505 12.4713 8.47007C12.3463 8.5951 12.1767 8.66533 11.9999 8.66533Z" fill="black"/>
</svg>
