<svg width="20" height="19" viewBox="0 0 20 19" fill="none" xmlns="http://www.w3.org/2000/svg">
<path d="M14.7785 9.9985H10.8334V13.7485C10.8334 13.9474 10.7502 14.1382 10.6023 14.2788C10.4543 14.4195 10.2536 14.4985 10.0443 14.4985C9.83506 14.4985 9.63437 14.4195 9.4864 14.2788C9.33843 14.1382 9.2553 13.9474 9.2553 13.7485V9.9985H5.31015C5.10088 9.9985 4.90019 9.91949 4.75222 9.77883C4.60425 9.63818 4.52112 9.44742 4.52112 9.2485C4.52112 9.04959 4.60425 8.85883 4.75222 8.71817C4.90019 8.57752 5.10088 8.4985 5.31015 8.4985H9.2553V4.7485C9.2553 4.54959 9.33843 4.35883 9.4864 4.21817C9.63437 4.07752 9.83506 3.9985 10.0443 3.9985C10.2536 3.9985 10.4543 4.07752 10.6023 4.21817C10.7502 4.35883 10.8334 4.54959 10.8334 4.7485V8.4985H14.7785C14.9878 8.4985 15.1885 8.57752 15.3364 8.71817C15.4844 8.85883 15.5675 9.04959 15.5675 9.2485C15.5675 9.44742 15.4844 9.63818 15.3364 9.77883C15.1885 9.91949 14.9878 9.9985 14.7785 9.9985Z" fill="black"/>
</svg>
